<svg width="1440" height="1024" viewBox="0 0 1440 1024" fill="none" xmlns="http://www.w3.org/2000/svg">
<path fill-rule="evenodd" clip-rule="evenodd" d="M559.776 -71.879C575.312 -70.2383 584.374 -53.035 598.232 -45.8315C610.625 -39.3888 630.11 -43.5749 637.27 -31.5943C645.463 -17.8858 626.615 2.30436 635.091 15.8401C644.854 31.4306 672.495 26.9487 683.269 41.8605C692.786 55.0334 692.16 74.0358 688.587 89.8824C684.999 105.799 673.255 118.416 663.125 131.216C653.111 143.868 645.215 165.886 629.087 165.061C606.389 163.902 595.966 130.117 573.508 126.638C560.013 124.547 553.691 145.543 541.394 151.475C524.821 159.47 507.116 170.747 489.019 167.393C472.62 164.354 461.861 147.987 451.625 134.837C441.336 121.62 427.723 107.098 429.096 90.4131C430.621 71.8946 455.919 62.2788 459.104 43.9721C461.955 27.5939 443.328 12.9313 445.448 -3.55691C447.506 -19.5576 457.251 -35.2617 470.486 -44.514C483.856 -53.8611 502.431 -49.5191 518.034 -54.3011C532.594 -58.7633 544.63 -73.4786 559.776 -71.879Z" fill="#EF484F"/>
<path fill-rule="evenodd" clip-rule="evenodd" d="M1408.78 -108.879C1424.31 -107.238 1433.37 -90.035 1447.23 -82.8315C1459.63 -76.3888 1479.11 -80.5749 1486.27 -68.5943C1494.46 -54.8858 1475.61 -34.6956 1484.09 -21.1599C1493.85 -5.56944 1521.49 -10.0513 1532.27 4.86053C1541.79 18.0334 1541.16 37.0358 1537.59 52.8824C1534 68.7989 1522.26 81.4162 1512.12 94.2164C1502.11 106.868 1494.22 128.886 1478.09 128.061C1455.39 126.902 1444.97 93.1172 1422.51 89.6377C1409.01 87.5469 1402.69 108.543 1390.39 114.475C1373.82 122.47 1356.12 133.747 1338.02 130.393C1321.62 127.354 1310.86 110.987 1300.62 97.8374C1290.34 84.6196 1276.72 70.0977 1278.1 53.4131C1279.62 34.8946 1304.92 25.2788 1308.1 6.97211C1310.95 -9.40614 1292.33 -24.0687 1294.45 -40.5569C1296.51 -56.5576 1306.25 -72.2617 1319.49 -81.514C1332.86 -90.8611 1351.43 -86.5191 1367.03 -91.3011C1381.59 -95.7633 1393.63 -110.479 1408.78 -108.879Z" fill="#EF484F"/>
<path fill-rule="evenodd" clip-rule="evenodd" d="M63.7757 941.121C79.3117 942.762 88.3744 959.965 102.232 967.169C114.625 973.611 134.11 969.425 141.27 981.406C149.463 995.114 130.615 1015.3 139.091 1028.84C148.854 1044.43 176.495 1039.95 187.269 1054.86C196.786 1068.03 196.16 1087.04 192.587 1102.88C188.999 1118.8 177.255 1131.42 167.125 1144.22C157.111 1156.87 149.215 1178.89 133.087 1178.06C110.389 1176.9 99.966 1143.12 77.5078 1139.64C64.0128 1137.55 57.6906 1158.54 45.3939 1164.48C28.8207 1172.47 11.1157 1183.75 -6.98099 1180.39C-23.3803 1177.35 -34.1394 1160.99 -44.3753 1147.84C-54.6642 1134.62 -68.2772 1120.1 -66.9038 1103.41C-65.3794 1084.89 -40.0811 1075.28 -36.8955 1056.97C-34.0455 1040.59 -52.6725 1025.93 -50.5517 1009.44C-48.4936 993.442 -38.749 977.738 -25.5142 968.486C-12.1439 959.139 6.43079 963.481 22.034 958.699C36.5939 954.237 48.6299 939.521 63.7757 941.121Z" fill="#EF484F"/>
</svg>
