<svg width="144" height="240" viewBox="0 0 144 240" fill="none" xmlns="http://www.w3.org/2000/svg">
<path fill-rule="evenodd" clip-rule="evenodd" d="M12.7757 0.120952C28.3117 1.76169 37.3744 18.965 51.2315 26.1685C63.6252 32.6112 83.1097 28.4251 90.2702 40.4057C98.4633 54.1142 79.6146 74.3044 88.0908 87.8401C97.8537 103.431 125.495 98.9487 136.269 113.861C145.786 127.033 145.16 146.036 141.587 161.882C137.999 177.799 126.255 190.416 116.125 203.216C106.111 215.868 98.2151 237.886 82.0866 237.061C59.3894 235.902 48.966 202.117 26.5078 198.638C13.0128 196.547 6.69061 217.543 -5.60615 223.475C-22.1793 231.47 -39.8843 242.747 -57.981 239.393C-74.3803 236.354 -85.1394 219.987 -95.3753 206.837C-105.664 193.62 -119.277 179.098 -117.904 162.413C-116.379 143.895 -91.0811 134.279 -87.8955 115.972C-85.0455 99.5939 -103.672 84.9313 -101.552 68.4431C-99.4936 52.4424 -89.749 36.7383 -76.5142 27.486C-63.1439 18.1389 -44.5692 22.4809 -28.966 17.6989C-14.4061 13.2367 -2.37015 -1.4786 12.7757 0.120952Z" fill="#EF484F"/>
</svg>
