<svg width="162" height="131" viewBox="0 0 162 131" fill="none" xmlns="http://www.w3.org/2000/svg">
<path fill-rule="evenodd" clip-rule="evenodd" d="M130.776 -108.879C146.312 -107.238 155.374 -90.035 169.232 -82.8315C181.625 -76.3888 201.11 -80.5749 208.27 -68.5943C216.463 -54.8858 197.615 -34.6956 206.091 -21.1599C215.854 -5.56944 243.495 -10.0513 254.269 4.86053C263.786 18.0334 263.16 37.0358 259.587 52.8824C255.999 68.7989 244.255 81.4162 234.125 94.2164C224.111 106.868 216.215 128.886 200.087 128.061C177.389 126.902 166.966 93.1172 144.508 89.6377C131.013 87.5469 124.691 108.543 112.394 114.475C95.8207 122.47 78.1157 133.747 60.019 130.393C43.6197 127.354 32.8606 110.987 22.6247 97.8374C12.3358 84.6196 -1.27719 70.0977 0.0962415 53.4131C1.62064 34.8946 26.9189 25.2788 30.1045 6.97211C32.9545 -9.40614 14.3275 -24.0687 16.4483 -40.5569C18.5064 -56.5576 28.251 -72.2617 41.4858 -81.514C54.8561 -90.8611 73.4308 -86.5191 89.034 -91.3011C103.594 -95.7633 115.63 -110.479 130.776 -108.879Z" fill="#EF484F"/>
</svg>
