<svg width="262" height="168" viewBox="0 0 262 168" fill="none" xmlns="http://www.w3.org/2000/svg">
<path fill-rule="evenodd" clip-rule="evenodd" d="M130.776 -71.879C146.312 -70.2383 155.374 -53.035 169.232 -45.8315C181.625 -39.3888 201.11 -43.5749 208.27 -31.5943C216.463 -17.8858 197.615 2.30436 206.091 15.8401C215.854 31.4306 243.495 26.9487 254.269 41.8605C263.786 55.0334 263.16 74.0358 259.587 89.8824C255.999 105.799 244.255 118.416 234.125 131.216C224.111 143.868 216.215 165.886 200.087 165.061C177.389 163.902 166.966 130.117 144.508 126.638C131.013 124.547 124.691 145.543 112.394 151.475C95.8207 159.47 78.1157 170.747 60.019 167.393C43.6197 164.354 32.8606 147.987 22.6247 134.837C12.3358 121.62 -1.27719 107.098 0.0962415 90.4131C1.62064 71.8946 26.9189 62.2788 30.1045 43.9721C32.9545 27.5939 14.3275 12.9313 16.4483 -3.55691C18.5064 -19.5576 28.251 -35.2617 41.4858 -44.514C54.8561 -53.8611 73.4308 -49.5191 89.034 -54.3011C103.594 -58.7633 115.63 -73.4786 130.776 -71.879Z" fill="#EF484F"/>
</svg>
