<svg width="195" height="83" viewBox="0 0 195 83" fill="none" xmlns="http://www.w3.org/2000/svg">
<path fill-rule="evenodd" clip-rule="evenodd" d="M63.7757 0.120952C79.3117 1.76169 88.3744 18.965 102.232 26.1685C114.625 32.6112 134.11 28.4251 141.27 40.4057C149.463 54.1142 130.615 74.3044 139.091 87.8401C148.854 103.431 176.495 98.9487 187.269 113.861C196.786 127.033 196.16 146.036 192.587 161.882C188.999 177.799 177.255 190.416 167.125 203.216C157.111 215.868 149.215 237.886 133.087 237.061C110.389 235.902 99.966 202.117 77.5078 198.638C64.0128 196.547 57.6906 217.543 45.3939 223.475C28.8207 231.47 11.1157 242.747 -6.98099 239.393C-23.3803 236.354 -34.1394 219.987 -44.3753 206.837C-54.6642 193.62 -68.2772 179.098 -66.9038 162.413C-65.3794 143.895 -40.0811 134.279 -36.8955 115.972C-34.0455 99.5939 -52.6725 84.9313 -50.5517 68.4431C-48.4936 52.4424 -38.749 36.7383 -25.5142 27.486C-12.1439 18.1389 6.43079 22.4809 22.034 17.6989C36.5939 13.2367 48.6299 -1.4786 63.7757 0.120952Z" fill="#EF484F"/>
</svg>
