<svg width="776" height="590" viewBox="0 0 776 590" fill="none" xmlns="http://www.w3.org/2000/svg">
<path d="M754.825 374.564C754.825 374.564 754.825 369.656 747.959 362.79C741.093 355.925 736.721 352 736.721 352C736.721 352 733.209 363.282 739.618 370.148C744.309 374.98 749.395 379.412 754.825 383.396V374.564Z" fill="#FFC93C"/>
<path d="M744.86 405.197C744.86 405.197 744.86 400.289 737.985 393.423C731.111 386.557 726.703 382.633 726.703 382.633C726.703 382.633 723.27 393.915 729.697 400.78C734.388 405.613 739.474 410.044 744.904 414.029L744.86 405.197Z" fill="#FFC93C"/>
<path d="M754.394 382.922C754.394 382.922 754.912 378.041 762.463 371.939C770.014 365.837 774.825 362.395 774.825 362.395C774.825 362.395 777.046 373.976 769.978 380.139C764.803 384.448 759.276 388.315 753.455 391.702L754.394 382.922Z" fill="#FFC93C"/>
<path d="M742.349 419.095C742.349 419.095 743.376 414.301 751.532 409.024C759.689 403.748 764.816 400.833 764.816 400.833C764.816 400.833 765.808 412.589 758.135 417.962C752.542 421.717 746.645 424.998 740.505 427.769L742.349 419.095Z" fill="#FFC93C"/>
<path d="M744.623 458.542C744.623 458.542 744.623 453.634 751.488 446.769C758.354 439.903 762.77 435.978 762.77 435.978C762.77 435.978 766.194 447.26 759.82 454.108C755.133 458.946 750.049 463.384 744.623 467.375V458.542Z" fill="#FFC93C"/>
<path d="M744.5 468.156C744.5 468.156 745.193 463.301 739.372 455.522C733.551 447.743 729.715 443.23 729.715 443.23C729.715 443.23 724.71 453.906 730.048 461.615C734.006 467.062 738.411 472.169 743.218 476.883L744.5 468.156Z" fill="#FFC93C"/>
<path d="M737.73 496.699C737.73 496.699 737.73 491.8 744.596 484.934C751.462 478.068 755.878 474.144 755.878 474.144C755.878 474.144 759.311 485.426 752.937 492.292C748.245 497.12 743.159 501.549 737.73 505.531V496.699Z" fill="#FFC93C"/>
<path d="M742.313 522.59C742.313 522.59 741.067 517.849 745.975 509.421C750.883 500.992 754.157 496.119 754.157 496.119C754.157 496.119 760.303 506.163 755.913 514.425C752.604 520.294 748.806 525.874 744.561 531.107L742.313 522.59Z" fill="#FFC93C"/>
<path d="M755.448 373.335C755.099 378.443 754.468 383.528 753.56 388.568C750.847 402.615 744.061 411.641 741.348 424.31C738.635 436.979 746.422 453.283 744.342 469.569C742.261 485.856 735.922 494.881 737.73 505.742C739.539 516.603 749.012 545.988 749.012 545.988" stroke="#263238" stroke-linecap="round" stroke-linejoin="round"/>
<path d="M754.324 386.18L761.726 380.499" stroke="#263238" stroke-linecap="round" stroke-linejoin="round"/>
<path d="M754.667 379.639L751.567 374.134" stroke="#263238" stroke-linecap="round" stroke-linejoin="round"/>
<path d="M741.76 423.695C741.76 423.695 747.959 419.051 754.324 414.406" stroke="#263238" stroke-linecap="round" stroke-linejoin="round"/>
<path d="M744.86 414.029C744.86 414.029 739.697 403.906 733.841 397.189" stroke="#263238" stroke-linecap="round" stroke-linejoin="round"/>
<path d="M744.86 465.522C748.396 459.004 752.859 453.033 758.108 447.796" stroke="#263238" stroke-linecap="round" stroke-linejoin="round"/>
<path d="M743.648 472.405C741.771 467.979 739.528 463.718 736.94 459.666C733.323 454.337 732.805 453.643 732.805 453.643" stroke="#263238" stroke-linecap="round" stroke-linejoin="round"/>
<path d="M737.73 505.716C739.296 501.817 741.16 498.045 743.306 494.434C745.453 491.086 747.873 487.92 750.54 484.969" stroke="#263238" stroke-linecap="round" stroke-linejoin="round"/>
<path d="M744.552 531.116C744.552 531.116 743.824 525.224 746.379 520.246C748.933 515.268 751.883 508.718 753.095 506.137" stroke="#263238" stroke-linecap="round" stroke-linejoin="round"/>
<path d="M709.855 440.061C709.855 440.061 709.319 436.979 712.884 431.931C716.448 426.882 718.784 423.941 718.784 423.941C718.784 423.941 722.164 430.64 718.907 435.636C716.494 439.177 713.786 442.507 710.812 445.592L709.855 440.061Z" fill="#FFC93C"/>
<path d="M719.425 458.226C719.425 458.226 718.898 455.144 722.454 450.096C726.01 445.048 728.363 442.106 728.363 442.106C728.363 442.106 731.734 448.805 728.485 453.801C726.07 457.343 723.362 460.676 720.391 463.766L719.425 458.226Z" fill="#FFC93C"/>
<path d="M711.031 445.329C711.031 445.329 710.153 442.326 704.78 439.323C699.407 436.321 696 434.679 696 434.679C696 434.679 695.86 442.185 700.961 445.276C704.675 447.415 708.56 449.242 712.577 450.737L711.031 445.329Z" fill="#FFC93C"/>
<path d="M722.506 466.663C722.506 466.663 721.339 463.766 715.658 461.343C709.978 458.92 706.431 457.62 706.431 457.62C706.431 457.62 707.089 465.101 712.48 467.638C716.398 469.374 720.453 470.781 724.605 471.844L722.506 466.663Z" fill="#FFC93C"/>
<path d="M725.369 491.651C725.369 491.651 724.842 488.569 719.785 485.013C714.728 481.457 711.541 479.464 711.541 479.464C711.541 479.464 710.61 486.918 715.36 490.527C718.822 493.049 722.49 495.275 726.326 497.182L725.369 491.651Z" fill="#FFC93C"/>
<path d="M726.484 497.674C726.484 497.674 725.527 494.706 728.327 489.192C731.128 483.679 733.042 480.413 733.042 480.413C733.042 480.413 737.335 486.558 734.798 491.976C732.908 495.82 730.7 499.5 728.196 502.977L726.484 497.674Z" fill="#FFC93C"/>
<path d="M735.105 522.485C735.105 522.485 735.465 519.386 740.303 515.54C745.141 511.695 748.205 509.535 748.205 509.535C748.205 509.535 749.557 516.919 745.026 520.799C741.707 523.511 738.169 525.943 734.447 528.069L735.105 522.485Z" fill="#FFC93C"/>
<path d="M733.832 514.829C733.832 514.829 733.297 511.756 728.248 508.192C723.2 504.627 720.039 502.652 720.039 502.652C720.039 502.652 719.109 510.097 723.85 513.714C727.318 516.231 730.989 518.457 734.824 520.369L733.832 514.829Z" fill="#FFC93C"/>
<path d="M733.762 531.546C733.762 531.546 734.025 528.438 730.039 523.714C726.053 518.991 723.472 516.269 723.472 516.269C723.472 516.269 720.689 523.231 724.35 527.929C727.063 531.246 730.05 534.33 733.279 537.147L733.762 531.546Z" fill="#FFC93C"/>
<path d="M709.328 439.376C710.094 442.539 711.031 445.657 712.138 448.718C715.369 457.216 720.601 462.159 723.683 469.789C726.765 477.419 723.683 488.516 726.721 498.499C729.759 508.481 734.745 513.424 734.789 520.448C734.833 527.472 732.068 546.928 732.068 546.928" stroke="#263238" stroke-linecap="round" stroke-linejoin="round"/>
<path d="M711.426 447.322L706.167 444.565" stroke="#263238" stroke-linecap="round" stroke-linejoin="round"/>
<path d="M710.504 443.257L711.848 439.473" stroke="#263238" stroke-linecap="round" stroke-linejoin="round"/>
<path d="M723.376 469.491C723.376 469.491 718.986 467.243 714.491 465.022" stroke="#263238" stroke-linecap="round" stroke-linejoin="round"/>
<path d="M720.391 463.766C721.676 459.687 723.376 455.751 725.465 452.019" stroke="#263238" stroke-linecap="round" stroke-linejoin="round"/>
<path d="M725.974 496.049C723.049 492.35 719.601 489.096 715.737 486.392" stroke="#263238" stroke-linecap="round" stroke-linejoin="round"/>
<path d="M727.476 500.237C728.176 497.258 729.121 494.342 730.303 491.519C731.989 487.779 732.243 487.296 732.243 487.296" stroke="#263238" stroke-linecap="round" stroke-linejoin="round"/>
<path d="M734.57 525.795C734.57 525.795 738.082 521.528 740.224 519.93C741.532 518.966 742.759 517.898 743.894 516.734" stroke="#263238" stroke-linecap="round" stroke-linejoin="round"/>
<path d="M734.807 520.483C733.4 518.209 731.821 516.045 730.083 514.013C728.375 512.146 726.516 510.422 724.526 508.859" stroke="#263238" stroke-linecap="round" stroke-linejoin="round"/>
<path d="M733.288 537.147C733.107 534.774 732.298 532.493 730.944 530.536C728.784 527.691 726.238 523.907 725.202 522.415" stroke="#263238" stroke-linecap="round" stroke-linejoin="round"/>
<path d="M758.977 561.827C759.096 555.32 757.11 548.949 753.315 543.662H726.975C723.191 548.947 721.208 555.31 721.321 561.81C721.321 572.644 726.352 581.88 733.428 585.515V587.561H747.107V585.55H746.861C753.947 581.898 758.977 572.635 758.977 561.827Z" fill="#263238" stroke="#263238" stroke-linecap="round" stroke-linejoin="round"/>
<path d="M580.634 368.681H554.793V378.177H580.634V368.681Z" fill="#545454"/>
<path d="M580.642 368.681H556.283V378.177H580.642V368.681Z" fill="#263238"/>
<path d="M580.642 368.681H556.283V370.882H580.642V368.681Z" fill="#545454"/>
<path d="M568.952 377.25H559.211L634.638 586.224H644.379L568.952 377.25Z" fill="#545454"/>
<path d="M570.716 377.25H560.975L636.403 586.224H646.143L570.716 377.25Z" fill="#263238"/>
<path d="M647.359 559.885H629.212V563.747H647.359V559.885Z" fill="white" stroke="#263238" stroke-miterlimit="10"/>
<path d="M632.541 519.032H614.393V522.894H632.541V519.032Z" fill="white" stroke="#263238" stroke-miterlimit="10"/>
<path d="M617.722 478.186H599.575V482.048H617.722V478.186Z" fill="white" stroke="#263238" stroke-miterlimit="10"/>
<path d="M602.903 437.333H584.756V441.195H602.903V437.333Z" fill="white" stroke="#263238" stroke-miterlimit="10"/>
<path d="M588.085 396.479H569.937V400.342H588.085V396.479Z" fill="white" stroke="#263238" stroke-miterlimit="10"/>
<path d="M588.863 412.558L601.547 403.618L605.95 370.838C605.95 370.838 592.74 398.674 590.991 402.032C589.241 405.39 588.863 412.558 588.863 412.558Z" fill="#263238" stroke="#263238" stroke-miterlimit="10"/>
<path d="M617.611 503.687C617.611 503.687 614.734 508.209 607.484 508.572C603.956 508.75 602.725 509.632 602.547 511.745C602.369 513.857 604.134 515.095 607.833 516.326C611.532 517.557 618.055 518.439 621.228 518.617C624.401 518.795 628.975 519.855 629.509 517.564C630.042 515.273 631.095 509.632 631.095 509.106C631.095 508.579 617.611 503.687 617.611 503.687Z" fill="#263238" stroke="#263238" stroke-miterlimit="10"/>
<path d="M601.421 396.398C600.494 407.873 599.434 422.907 599.434 431.632C599.434 447.14 605.075 461.062 607.188 466.169C609.301 471.277 612.948 481.967 613.118 482.671C613.289 483.375 615.061 493.242 615.765 495.71C616.469 498.179 616.817 499.943 616.817 499.943C616.817 499.943 614.883 503.65 614.883 505.229C614.883 506.808 617.055 504.539 617.055 504.539C619.994 505.605 622.997 506.486 626.047 507.178C630.798 508.238 631.977 511.293 631.977 511.293C631.977 511.293 632.296 507.868 632.652 492.893C633.008 477.919 624.104 448.341 624.104 443.789C624.104 439.238 627.448 399.563 627.448 399.563C627.448 399.563 608.952 399.741 603.311 397.102L601.421 396.398Z" fill="#5C5C5C" stroke="#263238" stroke-miterlimit="10"/>
<path d="M628.449 507.163C628.449 507.163 623.867 510.129 622.459 510.87C621.05 511.611 615.046 512.812 614.527 514.221C614.008 515.629 614.883 518.098 614.883 518.098C614.883 518.098 626.684 520.388 632.148 520.737C637.611 521.085 645.009 521.619 645.891 520.737C646.774 519.855 646.596 510.522 646.596 510.522C646.596 510.522 631.265 505.933 628.449 507.163Z" fill="#263238" stroke="#263238" stroke-miterlimit="10"/>
<path d="M616.195 418.244C616.195 418.244 618.485 446.614 619.901 451.544C621.317 456.473 629.182 483.205 629.538 486.548C629.88 489.413 629.996 492.301 629.887 495.184C629.716 496.237 628.834 497.475 628.656 500.114C628.478 502.753 628.478 507.164 628.478 507.164C630.587 507.511 632.582 508.358 634.297 509.632C637.114 511.745 641.71 512.271 643.986 511.923C646.262 511.574 646.625 511.745 646.625 510.514V505.933C646.625 502.582 646.277 499.587 646.625 493.42C646.974 487.252 644.75 468.104 643.66 462.47C642.57 456.836 639.257 449.253 639.079 446.962C638.901 444.672 642.785 426.347 642.785 420.357C642.785 414.367 641.733 400.275 641.733 400.275L619.004 399.741" fill="#5C5C5C"/>
<path d="M616.195 418.244C616.195 418.244 618.485 446.614 619.901 451.544C621.317 456.473 629.182 483.205 629.538 486.548C629.88 489.413 629.996 492.301 629.887 495.184C629.716 496.237 628.834 497.475 628.656 500.114C628.478 502.753 628.478 507.164 628.478 507.164C630.587 507.511 632.582 508.358 634.297 509.632C637.114 511.745 641.71 512.271 643.986 511.923C646.262 511.574 646.625 511.745 646.625 510.514V505.933C646.625 502.582 646.277 499.587 646.625 493.42C646.974 487.252 644.75 468.104 643.66 462.47C642.57 456.836 639.257 449.253 639.079 446.962C638.901 444.672 642.785 426.347 642.785 420.357C642.785 414.367 641.733 400.275 641.733 400.275L619.004 399.741" stroke="#263238" stroke-miterlimit="10"/>
<path d="M622.222 335.181L617.344 335.404C617.344 335.404 607.596 350.912 605.817 361.549C604.037 372.187 600.946 399.697 600.946 399.697C600.946 399.697 606.714 401.691 618.456 401.921C630.198 402.151 641.503 401.476 641.503 401.476C641.503 401.476 647.255 371.305 649.25 358.673C651.244 346.041 647.7 343.165 644.149 340.059C641.905 338.152 639.252 336.787 636.395 336.071L622.222 335.181Z" fill="#263238" stroke="#263238" stroke-miterlimit="10"/>
<path d="M601.369 394.374C606.442 396.113 611.746 397.085 617.107 397.258C625.743 397.48 642.148 396.813 642.148 396.813V402.795L633.252 403.24C633.252 403.24 633.252 420.75 633.03 421.409C632.807 422.069 634.134 422.744 625.498 422.744C616.862 422.744 608.656 421.194 608.211 419.415C607.766 417.636 609.693 402.617 609.693 402.617L600.865 399.697L601.369 394.374Z" fill="white" stroke="#263238" stroke-miterlimit="10"/>
<path d="M616.988 401.127L613.111 401.061L613.244 393.218C613.256 392.703 613.471 392.214 613.841 391.857C614.212 391.5 614.709 391.305 615.224 391.312C615.737 391.324 616.225 391.538 616.581 391.907C616.938 392.276 617.135 392.771 617.129 393.284L616.988 401.127Z" fill="white" stroke="#263238" stroke-miterlimit="10"/>
<path d="M615.135 400.927L614.905 413.744" stroke="#263238" stroke-miterlimit="10"/>
<path d="M617.498 400.803L612.436 400.712L612.406 402.402L617.468 402.492L617.498 400.803Z" fill="white" stroke="#263238" stroke-miterlimit="10"/>
<path d="M614.957 399.852C614.853 399.858 614.75 399.841 614.653 399.804C614.556 399.767 614.468 399.71 614.395 399.636C614.321 399.563 614.264 399.475 614.227 399.378C614.19 399.281 614.173 399.178 614.178 399.074V393.485C614.178 393.384 614.199 393.285 614.238 393.192C614.278 393.1 614.336 393.016 614.409 392.947C614.481 392.878 614.567 392.824 614.662 392.789C614.756 392.754 614.856 392.738 614.957 392.743C615.057 392.738 615.158 392.754 615.252 392.789C615.346 392.824 615.432 392.878 615.505 392.947C615.578 393.016 615.636 393.1 615.675 393.192C615.715 393.285 615.735 393.384 615.735 393.485V399.044C615.745 399.15 615.732 399.257 615.696 399.358C615.661 399.458 615.605 399.55 615.531 399.627C615.457 399.703 615.368 399.763 615.268 399.802C615.169 399.841 615.063 399.858 614.957 399.852Z" fill="white" stroke="#263238" stroke-miterlimit="10"/>
<path d="M625.172 402.944L621.288 402.87L621.428 395.034C621.432 394.779 621.486 394.528 621.588 394.294C621.689 394.06 621.835 393.849 622.019 393.672C622.202 393.495 622.418 393.356 622.655 393.262C622.892 393.169 623.146 393.124 623.4 393.129C623.655 393.132 623.907 393.185 624.141 393.286C624.376 393.387 624.587 393.533 624.765 393.717C624.942 393.9 625.081 394.117 625.174 394.355C625.267 394.592 625.311 394.846 625.305 395.101L625.172 402.944Z" fill="white" stroke="#263238" stroke-miterlimit="10"/>
<path d="M623.319 402.743L623.089 415.561" stroke="#263238" stroke-miterlimit="10"/>
<path d="M625.346 403.111L620.283 403.01L620.249 404.7L625.312 404.801L625.346 403.111Z" fill="white" stroke="#263238" stroke-width="1.0002" stroke-miterlimit="10"/>
<path d="M623.141 401.639C622.932 401.639 622.733 401.556 622.585 401.409C622.438 401.261 622.355 401.061 622.355 400.853V395.301C622.355 395.197 622.375 395.095 622.415 395C622.454 394.905 622.512 394.818 622.585 394.745C622.658 394.672 622.745 394.614 622.84 394.575C622.935 394.535 623.038 394.515 623.141 394.515C623.348 394.517 623.546 394.6 623.692 394.748C623.837 394.895 623.919 395.094 623.919 395.301V400.898C623.908 401.097 623.821 401.284 623.677 401.422C623.532 401.56 623.34 401.637 623.141 401.639Z" fill="white" stroke="#263238" stroke-miterlimit="10"/>
<path d="M610.442 403.937C613.04 404.634 615.741 404.86 618.419 404.604L617.729 421.654C617.729 421.654 611.999 422.87 608.871 419.045L610.442 403.937Z" fill="white" stroke="#263238" stroke-miterlimit="10"/>
<path d="M618.419 404.604C618.419 404.604 621.895 406.346 628.841 405.301L629.709 422.143C629.709 422.143 622.763 424.575 617.729 421.625L618.419 404.604Z" fill="white" stroke="#263238" stroke-miterlimit="10"/>
<path d="M603.4 359.066C603.4 359.066 589.234 359.399 587.373 358.725C585.512 358.05 586.365 354.507 587.714 346.582C589.063 338.658 597.492 311.155 597.492 311.155C597.492 311.155 594.63 308.124 594.46 306.433C594.289 304.743 595.809 298.509 595.809 298.509C595.809 298.509 592.77 299.858 591.932 299.013C591.094 298.168 594.46 294.965 594.46 294.965C594.46 294.965 597.662 293.95 599.856 295.469C602.051 296.989 604.245 299.517 604.579 302.727C604.912 305.937 603.904 312.846 603.059 317.909C602.214 322.972 600.702 341.015 600.702 341.015C600.702 341.015 608.292 336.123 610.65 335.085C613.944 333.669 617.583 333.259 621.11 333.906C621.11 333.906 618.241 346.56 616.729 350.956C615.216 355.352 605.728 375.775 601.851 384.715C597.974 393.655 588.863 412.551 588.863 412.551C588.863 412.551 587.514 405.138 591.561 394.5C595.609 383.862 603.4 359.066 603.4 359.066Z" fill="#B2B2B2" stroke="#263238" stroke-miterlimit="10"/>
<path d="M595.905 313.572L604.541 314.803L603.311 319.91L595.023 318.324L595.905 313.572Z" fill="white" stroke="#263238" stroke-miterlimit="10"/>
<path d="M594.497 316.745L604.875 318.68L601.91 339.117C601.91 339.117 608.582 335.411 611.777 334.358C614.972 333.306 620.064 334.358 620.064 334.358C620.064 334.358 621.354 335.789 619.827 339.547C618.3 343.306 613.897 357.947 611.777 363.269C609.657 368.592 588.174 414.901 588.174 414.901C588.174 414.901 587.291 407.325 589.234 401.335C591.176 395.345 602.266 359.036 602.266 359.036C602.266 359.036 588.7 359.918 587.114 359.392C585.527 358.866 585.705 353.224 585.876 351.816C586.046 350.407 594.497 316.745 594.497 316.745Z" fill="#EF484F" stroke="#263238" stroke-miterlimit="10"/>
<path d="M602.347 377.65L620.05 334.358L616.432 333.943L599.441 376.509L597.425 375.842C597.084 376.902 596.476 378.629 596.12 379.733L597.944 381.016L601.851 384.722C602.688 382.98 604.156 380.045 604.934 378.429L602.347 377.65Z" fill="white" stroke="#263238" stroke-miterlimit="10"/>
<path d="M618.782 302.756C618.782 302.756 622.207 295.395 625.973 293.512C629.738 291.629 636.588 294.365 636.588 294.365C636.588 294.365 645.662 298.301 648.071 304.469C650.48 310.636 646.188 321.934 646.188 321.934L618.27 303.957L618.782 302.756Z" fill="white" stroke="#263238" stroke-miterlimit="10"/>
<path d="M627.855 301.882C628.574 300.639 629.196 299.343 629.716 298.005C630.082 296.668 630.022 295.251 629.546 293.95C631.207 293.798 632.88 294.029 634.438 294.624" stroke="#263238" stroke-miterlimit="10"/>
<path d="M616.558 311.489C616.558 311.489 610.909 306.352 610.909 304.469C610.909 302.586 625.973 301.044 629.568 302.245C633.163 303.446 638.464 311.141 640.687 313.364C642.911 315.588 649.583 320.036 648.219 323.12C646.855 326.204 642.4 328.606 637.1 325.344C631.799 322.082 616.936 312.171 616.936 312.171C618.819 310.459 620.02 312 620.02 312" fill="white"/>
<path d="M616.558 311.489C616.558 311.489 610.909 306.352 610.909 304.469C610.909 302.586 625.973 301.044 629.568 302.245C633.163 303.446 638.464 311.141 640.687 313.364C642.911 315.588 649.583 320.036 648.219 323.12C646.855 326.204 642.4 328.606 637.1 325.344C631.799 322.082 616.936 312.171 616.936 312.171C618.819 310.459 620.02 312 620.02 312" stroke="#263238" stroke-miterlimit="10"/>
<path d="M642.585 317.308C642.585 317.308 636.076 309.606 630.769 307.382C625.461 305.158 619.293 306.693 617.759 308.405C616.224 310.118 613.133 318.339 612.963 320.904C612.792 323.469 612.488 331.349 613.971 332.209C615.453 333.069 620.309 333.573 620.309 333.573C619.743 337.252 619.458 340.969 619.456 344.692C619.627 349.14 622.755 348.999 625.15 347.969C627.544 346.938 637.433 337.331 637.433 336.108C637.346 334.842 637.173 333.584 636.914 332.342L638.975 326.686C638.975 326.686 645.491 322.787 642.585 317.308Z" fill="#B2B2B2" stroke="#263238" stroke-miterlimit="10"/>
<path d="M634.498 309.599C635.041 310.554 635.403 311.602 635.565 312.69C635.565 314.054 634.023 321.934 634.023 321.934C634.023 321.934 635.906 322.957 636.418 321.415C636.929 319.873 637.618 315.937 642.585 317.308C640.15 314.478 637.441 311.896 634.498 309.599Z" fill="#263238" stroke="#263238" stroke-miterlimit="10"/>
<path d="M620.494 320.903C619.983 320.733 616.047 319.362 615.876 318.339C615.706 317.316 620.665 313.372 620.665 313.372V311.659C620.665 311.659 619.182 310.273 616.899 312.171" stroke="#263238" stroke-miterlimit="10"/>
<path d="M618.419 320.562C618.419 320.562 612.77 319.362 613.622 322.957C613.889 324.076 619.62 325.018 621.503 325.181C623.385 325.344 628.004 325.522 627.151 323.468C626.299 321.415 620.643 320.051 618.419 320.562Z" fill="#263238" stroke="#263238" stroke-miterlimit="10"/>
<path d="M624.95 312.342C624.95 312.342 628.886 310.288 630.598 313.884" stroke="#263238" stroke-miterlimit="10"/>
<path d="M628.189 315.729C628.056 316.574 627.566 317.212 627.099 317.116C626.632 317.019 626.358 316.3 626.499 315.462C626.64 314.625 627.122 313.98 627.589 314.076C628.056 314.173 628.322 314.906 628.189 315.729Z" fill="#263238"/>
<path d="M618.419 314.395C618.307 315.092 617.907 315.603 617.522 315.537C617.136 315.47 616.914 314.87 617.025 314.173C617.136 313.476 617.536 312.972 617.922 313.031C618.307 313.09 618.552 313.706 618.419 314.395Z" fill="#263238"/>
<path d="M625.09 316.967C625.09 316.967 625.943 319.191 629.197 319.021" stroke="#263238" stroke-miterlimit="10"/>
<path d="M620.324 333.573L626.832 334.091L619.812 339.57L620.324 333.573Z" fill="#263238" stroke="#263238" stroke-miterlimit="10"/>
<path d="M637.448 336.145C637.448 336.145 627.855 356.864 626.143 362.35C624.431 367.836 626.64 392.269 626.64 397.065C626.64 401.861 629.605 424.575 629.605 424.575C629.605 424.575 640.05 423.374 646.218 420.639C649.584 419.198 652.795 417.42 655.803 415.331L645.995 384.737C645.995 384.737 656.462 357.383 657.856 350.874C659.25 344.366 655.632 340.771 651.184 339.058C646.736 337.346 637.448 336.145 637.448 336.145Z" fill="#EF484F" stroke="#263238" stroke-miterlimit="10"/>
<path d="M645.995 384.76L634.787 382.098C634.787 382.098 632.859 368.866 637.07 355.663C641.28 342.461 646.344 337.961 646.344 337.961L640.161 336.834C640.161 336.834 634.231 349.481 631.451 357.064C628.671 364.648 629.449 383.225 629.449 383.225L625.928 384.226C626.143 386.568 626.291 388.036 626.491 390.052C630.087 389.081 635.943 388.088 637.322 388.281C638.56 388.459 643.912 389.415 647.7 390.097L645.995 384.76Z" fill="white" stroke="#263238" stroke-miterlimit="10"/>
<path d="M593.148 321.259L590.36 313.201H584.022L581.487 321.422C580.905 322.438 580.601 323.588 580.605 324.758C580.604 325.802 580.845 326.831 581.308 327.765C581.772 328.7 582.445 329.515 583.276 330.146C584.106 330.777 585.072 331.207 586.096 331.403C587.121 331.599 588.177 331.555 589.182 331.275C590.187 330.994 591.113 330.485 591.889 329.787C592.664 329.09 593.267 328.222 593.651 327.252C594.035 326.282 594.19 325.236 594.102 324.196C594.015 323.157 593.688 322.152 593.148 321.259Z" fill="white" stroke="#263238" stroke-miterlimit="10"/>
<path d="M590.531 308.064H584.022V313.201H590.531V308.064Z" fill="#263238" stroke="#263238" stroke-miterlimit="10"/>
<path d="M586.936 288.887H583.681V292.312H586.936V288.887Z" fill="#263238" stroke="#263238" stroke-miterlimit="10"/>
<path d="M584.712 291.8C583.568 294.142 582.128 296.327 580.427 298.301C578.033 300.874 579.404 302.749 581.287 303.098C583.17 303.446 586.424 303.439 586.424 304.639V307.894" stroke="#263238" stroke-miterlimit="10"/>
<path d="M585.912 292.482C585.912 292.482 580.605 299.502 580.775 300.532C580.946 301.563 586.765 302.586 587.966 303.097C589.167 303.609 588.818 307.894 588.818 307.894" stroke="#263238" stroke-miterlimit="10"/>
<path d="M584.712 289.057V243.17" stroke="#263238" stroke-miterlimit="10"/>
<path d="M586.424 243V289.917" stroke="#263238" stroke-miterlimit="10"/>
<path d="M599.604 338.539L597.039 333.743C597.039 333.743 595.327 325.7 595.327 325.018C595.327 324.336 593.103 319.71 592.243 318.168C591.383 316.626 590.531 316.797 590.531 318.509C590.531 320.221 592.073 323.127 592.073 323.646C591.97 324.29 591.798 324.922 591.561 325.529C591.561 325.529 584.371 320.392 583.511 319.532C582.651 318.672 581.116 319.88 581.116 320.903C581.152 321.782 581.325 322.65 581.628 323.476C581.798 323.987 580.775 327.583 580.775 328.783C580.927 330.315 581.457 331.785 582.317 333.061C583.17 334.432 589.33 336.486 589.33 336.486L594.816 344.188L599.604 338.539Z" fill="#B2B2B2" stroke="#263238" stroke-miterlimit="10"/>
<path d="M603.548 339.74L598.752 335.804L591.457 342.898C591.457 342.898 596.647 348.325 597.143 348.325C597.64 348.325 603.548 339.74 603.548 339.74Z" fill="white" stroke="#263238" stroke-miterlimit="10"/>
<path d="M644.127 343.165L628.886 354.982L602.518 338.369L594.297 349.155C594.297 349.155 610.049 361.653 615.357 366.79C620.665 371.928 629.056 376.724 633.148 374.5C637.24 372.276 653.697 359.77 654.209 359.259" fill="#EF484F"/>
<path d="M644.127 343.165L628.886 354.982L602.518 338.369L594.297 349.155C594.297 349.155 610.049 361.653 615.357 366.79C620.665 371.928 629.056 376.724 633.148 374.5C637.24 372.276 653.697 359.77 654.209 359.259" stroke="#263238" stroke-miterlimit="10"/>
<path d="M632.822 351.897C632.822 351.897 642.585 351.727 644.298 366.79L651.318 361.653C651.318 361.653 649.776 349.674 638.641 347.783L632.822 351.897Z" fill="white" stroke="#263238" stroke-miterlimit="10"/>
<path d="M606.284 285.632H565.193L578.996 269.198H592.48L606.284 285.632Z" fill="white" stroke="#263238" stroke-miterlimit="10"/>
<path d="M592.073 262.348H578.996V269.198H592.073V262.348Z" fill="white" stroke="#263238" stroke-miterlimit="10"/>
<path d="M572.25 281.792L570.538 284.002" stroke="#263238" stroke-miterlimit="10"/>
<path d="M573.874 279.687L581.724 269.553V264.424" stroke="#263238" stroke-miterlimit="10"/>
<path d="M599.968 292.934C599.968 292.934 598.292 291.526 597.062 291.496C595.831 291.467 592.125 292.601 592.725 293.498C593.326 294.395 599.968 292.934 599.968 292.934Z" fill="#B2B2B2" stroke="#263238" stroke-miterlimit="10"/>
<path d="M602.458 294.595C601.778 293.844 600.922 293.273 599.968 292.934C598.485 292.482 594.386 293.839 594.504 294.58C594.623 295.321 597.773 295.432 598.522 295.321C599.271 295.21 602.458 294.595 602.458 294.595Z" fill="#B2B2B2" stroke="#263238" stroke-miterlimit="10"/>
<path d="M605.898 300.525C605.898 300.525 604.831 294.817 603.986 294.061C603.14 293.305 598.455 294.476 597.788 294.995C597.121 295.514 598.203 296.685 598.693 296.819C599.85 296.9 601.01 296.922 602.169 296.885L602.703 300.703L605.898 300.525Z" fill="#B2B2B2" stroke="#263238" stroke-miterlimit="10"/>
<path d="M593.14 297.545L595.579 294.521L601.687 299.443C602.087 299.767 602.342 300.236 602.396 300.747C602.45 301.259 602.299 301.771 601.977 302.171C601.653 302.571 601.184 302.825 600.672 302.88C600.161 302.934 599.649 302.783 599.249 302.46L593.14 297.545Z" fill="white" stroke="#263238" stroke-miterlimit="10"/>
<path d="M594.438 296.203L584.452 288.16" stroke="#263238" stroke-miterlimit="10"/>
<path d="M593.081 298.145L596.258 294.202L594.942 293.142L591.765 297.084L593.081 298.145Z" fill="white" stroke="#263238" stroke-miterlimit="10"/>
<path d="M600.701 308.798C600.027 306.263 602.555 302.386 602.555 302.386C601.529 301.883 600.566 301.261 599.686 300.532C598.848 299.687 598.848 297.664 600.027 298.005C601.206 298.346 605.757 300.229 605.757 300.229C606.274 300.529 606.682 300.984 606.926 301.529C607.169 302.075 607.235 302.683 607.114 303.268C606.773 305.492 603.904 311.867 603.904 311.867" fill="#B2B2B2"/>
<path d="M600.701 308.798C600.027 306.263 602.555 302.386 602.555 302.386C601.529 301.883 600.566 301.261 599.686 300.532C598.848 299.687 598.848 297.664 600.027 298.005C601.206 298.346 605.757 300.229 605.757 300.229C606.274 300.529 606.682 300.984 606.926 301.529C607.169 302.075 607.235 302.683 607.114 303.268C606.773 305.492 603.904 311.867 603.904 311.867" stroke="#263238" stroke-miterlimit="10"/>
<path d="M621.339 495.303H540.285V499.18H621.339V495.303Z" fill="#545454"/>
<path d="M571.835 408.719L507.764 586.224H513.984L575.275 416.413L572.606 408.719H571.835Z" fill="#545454"/>
<path d="M570.071 408.719L506 586.224H508.698L572.68 408.948L572.606 408.719H570.071Z" fill="#263238"/>
<path d="M584.815 377.25H575.075L650.502 586.224H660.243L584.815 377.25Z" fill="#545454"/>
<path d="M586.572 377.25H576.832L652.259 586.224H662L586.572 377.25Z" fill="#263238"/>
<path d="M588.047 408.719L523.977 586.224H530.189L591.487 416.413L588.811 408.719H588.047Z" fill="#545454"/>
<path d="M586.283 408.719L522.212 586.224H524.903L588.893 408.948L588.811 408.719H586.283Z" fill="#263238"/>
<path d="M592.414 368.681H566.572V378.177H592.414V368.681Z" fill="#545454"/>
<path d="M592.421 368.681H568.062V378.177H592.421V368.681Z" fill="#454545"/>
<path d="M422.058 570.077H387.329V1L422.058 37.7186V570.077Z" stroke="#2E353A" stroke-linecap="round" stroke-linejoin="round"/>
<path d="M387.657 436.08H421.73L387.657 406.133H421.73L387.657 436.08Z" stroke="#2E353A" stroke-linecap="round" stroke-linejoin="round"/>
<path d="M387.657 405.378H421.73L387.657 375.432H421.73L387.657 405.378Z" stroke="#2E353A" stroke-linecap="round" stroke-linejoin="round"/>
<path d="M387.657 497.219H421.73L387.657 467.272H421.73L387.657 497.219Z" stroke="#2E353A" stroke-linecap="round" stroke-linejoin="round"/>
<path d="M387.657 466.518H421.73L387.657 436.571H421.73L387.657 466.518Z" stroke="#2E353A" stroke-linecap="round" stroke-linejoin="round"/>
<path d="M387.657 374.678H421.73L387.657 344.731H421.73L387.657 374.678Z" stroke="#2E353A" stroke-linecap="round" stroke-linejoin="round"/>
<path d="M387.657 343.976H421.73L387.657 314.029H421.73L387.657 343.976Z" stroke="#2E353A" stroke-linecap="round" stroke-linejoin="round"/>
<path d="M387.657 313.275H421.73L387.657 283.328H421.73L387.657 313.275Z" stroke="#2E353A" stroke-linecap="round" stroke-linejoin="round"/>
<path d="M387.657 282.574H421.73L387.657 252.627H421.73L387.657 282.574Z" stroke="#2E353A" stroke-linecap="round" stroke-linejoin="round"/>
<path d="M387.657 251.873H421.73L387.657 221.926H421.73L387.657 251.873Z" stroke="#2E353A" stroke-linecap="round" stroke-linejoin="round"/>
<path d="M387.657 221.171H421.73L387.657 191.225H421.73L387.657 221.171Z" stroke="#2E353A" stroke-linecap="round" stroke-linejoin="round"/>
<path d="M387.657 190.47H421.73L387.657 160.523H421.73L387.657 190.47Z" stroke="#2E353A" stroke-linecap="round" stroke-linejoin="round"/>
<path d="M387.657 159.769H421.73L387.657 129.822H421.73L387.657 159.769Z" stroke="#2E353A" stroke-linecap="round" stroke-linejoin="round"/>
<path d="M387.657 129.068H421.73L387.657 99.121H421.73L387.657 129.068Z" stroke="#2E353A" stroke-linecap="round" stroke-linejoin="round"/>
<path d="M387.657 98.3666H421.73L387.657 68.4198H421.73L387.657 98.3666Z" stroke="#2E353A" stroke-linecap="round" stroke-linejoin="round"/>
<path d="M387.657 67.6655H421.73L387.657 37.7186H421.73L387.657 67.6655Z" stroke="#2E353A" stroke-linecap="round" stroke-linejoin="round"/>
<path d="M583.276 68.4901L566.451 58.8586H446.406L431.743 68.4901H583.276Z" stroke="#2E353A" stroke-linecap="round" stroke-linejoin="round"/>
<path d="M586.054 67.6655H292.79V74.6829H586.054V67.6655Z" fill="#2E353A" stroke="#2E353A" stroke-linecap="round" stroke-linejoin="round"/>
<path d="M566.451 58.8586L387.329 1L446.406 58.8586" stroke="#2E353A" stroke-linecap="round" stroke-linejoin="round"/>
<path d="M387.329 1L292.79 67.6655" stroke="#2E353A" stroke-linecap="round" stroke-linejoin="round"/>
<path d="M447.139 82.5774H374.788V124.682H447.139V82.5774Z" fill="#2E353A" stroke="#2E353A" stroke-linecap="round" stroke-linejoin="round"/>
<path d="M446.792 513.13H375.183V570.619H446.792V513.13Z" fill="#2E353A" stroke="#2E353A" stroke-linecap="round" stroke-linejoin="round"/>
<path d="M432.052 91.3492H389.856V103.63H432.052V91.3492Z" fill="#F4F4F4" stroke="#2E353A" stroke-linecap="round" stroke-linejoin="round"/>
<path d="M586.054 74.6829V150.331" stroke="#2E353A" stroke-linecap="round" stroke-linejoin="round"/>
<path d="M597.071 176.155H575.635V198.242H597.071V176.155Z" fill="#2E353A" stroke="#2E353A" stroke-linecap="round" stroke-linejoin="round"/>
<path d="M575.635 176.155L586.343 148.892L597.071 176.155" stroke="#2E353A" stroke-linecap="round" stroke-linejoin="round"/>
<path d="M318.401 540.354V501.337H191.93V540.389C191.909 553.135 187.15 565.5 178.425 575.476L172.888 581.827H337.366L331.81 575.476C323.118 565.476 318.393 553.1 318.401 540.354Z" fill="#F4F4F4" stroke="#2E353A" stroke-width="1.09543" stroke-linecap="round" stroke-linejoin="round"/>
<g style="mix-blend-mode:multiply">
<path d="M184.155 567.704H326.176C321.097 559.329 318.441 549.918 318.458 540.354V501.337H191.93V540.389C191.923 549.946 189.248 559.344 184.155 567.704Z" fill="#EF484F"/>
</g>
<path d="M318.4 507.179H191.93V523.67H318.4V507.179Z" fill="#2E353A" stroke="#2E353A" stroke-width="1.09543" stroke-linecap="round" stroke-linejoin="round"/>
<path d="M491.407 166.957H18.9238C9.02476 166.957 1 174.254 1 183.255V497.319C1 506.321 9.02476 513.617 18.9238 513.617H491.407C501.306 513.617 509.331 506.321 509.331 497.319V183.255C509.331 174.254 501.306 166.957 491.407 166.957Z" fill="#2E353A" stroke="#2E353A" stroke-width="1.09543" stroke-linecap="round" stroke-linejoin="round"/>
<path d="M0.999985 459.741H509.331V497.319C509.331 501.642 507.442 505.787 504.081 508.844C500.72 511.9 496.161 513.617 491.407 513.617H19.0203C14.2666 513.617 9.70759 511.9 6.34621 508.844C2.98484 505.787 1.09644 501.642 1.09644 497.319V459.741H0.999985Z" fill="#F4F4F4" stroke="#2E353A" stroke-width="1.09543" stroke-linecap="round" stroke-linejoin="round"/>
<path d="M483.747 188.536H26.5641V433.443H483.747V188.536Z" fill="#EF484F" stroke="#2E353A" stroke-width="1.09543" stroke-linecap="round" stroke-linejoin="round"/>
<path d="M264.532 486.688C264.536 485.001 263.99 483.351 262.962 481.946C261.934 480.542 260.47 479.446 258.757 478.798C257.044 478.15 255.159 477.979 253.338 478.306C251.518 478.633 249.846 479.444 248.532 480.635C247.219 481.827 246.324 483.346 245.961 485.001C245.597 486.655 245.782 488.37 246.491 489.929C247.2 491.488 248.402 492.821 249.944 493.758C251.487 494.696 253.3 495.197 255.156 495.197C256.386 495.199 257.605 494.981 258.743 494.554C259.88 494.127 260.914 493.501 261.785 492.711C262.656 491.92 263.347 490.982 263.818 489.948C264.29 488.915 264.532 487.807 264.532 486.688Z" fill="#2E353A" stroke="#2E353A" stroke-width="1.09543" stroke-linecap="round" stroke-linejoin="round"/>
<path d="M337.405 581.809H172.945V588.774H337.405V581.809Z" fill="#F4F4F4" stroke="#2E353A" stroke-width="1.09543" stroke-linecap="round" stroke-linejoin="round"/>
<path d="M107.897 286.572C106.441 286.572 105.283 286.926 104.424 287.636C103.603 288.308 103.192 289.222 103.192 290.38C103.192 291.5 103.696 292.396 104.704 293.068C105.75 293.74 108.12 294.542 111.816 295.476C115.55 296.372 118.443 297.734 120.497 299.564C122.55 301.393 123.577 304.062 123.577 307.572C123.577 311.081 122.251 313.937 119.601 316.14C116.987 318.305 113.534 319.388 109.24 319.388C103.043 319.388 97.4618 317.092 92.4965 312.5L97.7045 306.116C101.923 309.812 105.825 311.66 109.409 311.66C111.014 311.66 112.265 311.324 113.161 310.652C114.094 309.942 114.56 309.009 114.56 307.852C114.56 306.657 114.075 305.724 113.105 305.052C112.134 304.342 110.211 303.633 107.337 302.924C102.782 301.841 99.4405 300.441 97.3125 298.724C95.2218 296.969 94.1765 294.244 94.1765 290.548C94.1765 286.814 95.5018 283.94 98.1525 281.924C100.84 279.908 104.182 278.9 108.177 278.9C110.79 278.9 113.403 279.348 116.017 280.244C118.63 281.14 120.907 282.409 122.848 284.052L118.424 290.436C115.027 287.86 111.518 286.572 107.897 286.572ZM138.567 318.94H130.167V288.812H138.567V318.94ZM130.839 285.004C129.906 284.033 129.439 282.857 129.439 281.476C129.439 280.094 129.906 278.937 130.839 278.004C131.81 277.033 132.986 276.548 134.367 276.548C135.749 276.548 136.906 277.033 137.839 278.004C138.81 278.937 139.295 280.094 139.295 281.476C139.295 282.857 138.81 284.033 137.839 285.004C136.906 285.937 135.749 286.404 134.367 286.404C132.986 286.404 131.81 285.937 130.839 285.004ZM174.183 302.7V318.94H165.727V302.476C165.727 300.086 165.354 298.332 164.607 297.212C163.898 296.092 162.722 295.532 161.079 295.532C159.474 295.532 158.036 296.148 156.767 297.38C155.535 298.574 154.919 300.348 154.919 302.7V318.94H146.519V288.812H154.919V292.228C157.234 289.614 159.884 288.308 162.871 288.308C164.775 288.308 166.492 288.868 168.023 289.988C169.591 291.108 170.767 292.47 171.551 294.076C172.708 292.246 174.258 290.828 176.199 289.82C178.178 288.812 180.156 288.308 182.135 288.308C185.682 288.308 188.538 289.372 190.703 291.5C192.868 293.59 193.951 296.633 193.951 300.628V318.94H185.495V302.476C185.495 297.846 183.796 295.532 180.399 295.532C178.719 295.532 177.263 296.148 176.031 297.38C174.799 298.574 174.183 300.348 174.183 302.7ZM219.117 288.308C222.627 288.308 225.744 289.782 228.469 292.732C231.232 295.644 232.613 299.321 232.613 303.764C232.613 308.206 231.232 311.921 228.469 314.908C225.744 317.894 222.533 319.388 218.837 319.388C215.179 319.388 212.229 317.913 209.989 314.964V329.804H201.589V288.812H209.989V292.172C212.565 289.596 215.608 288.308 219.117 288.308ZM209.877 303.932C209.877 306.358 210.549 308.356 211.893 309.924C213.275 311.454 214.936 312.22 216.877 312.22C218.819 312.22 220.517 311.454 221.973 309.924C223.429 308.356 224.157 306.358 224.157 303.932C224.157 301.505 223.448 299.47 222.029 297.828C220.611 296.185 218.912 295.364 216.933 295.364C214.955 295.364 213.275 296.185 211.893 297.828C210.549 299.433 209.877 301.468 209.877 303.932ZM247.286 318.94H238.886V277.388H247.286V318.94ZM281.334 314.572C277.936 317.782 273.942 319.388 269.35 319.388C264.795 319.388 261.024 317.988 258.038 315.188C255.051 312.35 253.558 308.561 253.558 303.82C253.558 299.078 255.07 295.308 258.094 292.508C261.155 289.708 264.758 288.308 268.902 288.308C273.046 288.308 276.555 289.558 279.43 292.06C282.342 294.561 283.798 297.996 283.798 302.364V306.844H261.846C262.107 308.486 262.966 309.83 264.422 310.876C265.878 311.921 267.52 312.444 269.35 312.444C272.299 312.444 274.726 311.454 276.63 309.476L281.334 314.572ZM275.286 300.852C275.099 299.06 274.427 297.678 273.27 296.708C272.112 295.737 270.694 295.252 269.014 295.252C267.371 295.252 265.859 295.756 264.478 296.764C263.096 297.772 262.294 299.134 262.07 300.852H275.286Z" fill="white"/>
<path d="M107.897 286.572C106.441 286.572 105.283 286.926 104.424 287.636C103.603 288.308 103.192 289.222 103.192 290.38C103.192 291.5 103.696 292.396 104.704 293.068C105.75 293.74 108.12 294.542 111.816 295.476C115.55 296.372 118.443 297.734 120.497 299.564C122.55 301.393 123.577 304.062 123.577 307.572C123.577 311.081 122.251 313.937 119.601 316.14C116.987 318.305 113.534 319.388 109.24 319.388C103.043 319.388 97.4618 317.092 92.4965 312.5L97.7045 306.116C101.923 309.812 105.825 311.66 109.409 311.66C111.014 311.66 112.265 311.324 113.161 310.652C114.094 309.942 114.56 309.009 114.56 307.852C114.56 306.657 114.075 305.724 113.105 305.052C112.134 304.342 110.211 303.633 107.337 302.924C102.782 301.841 99.4405 300.441 97.3125 298.724C95.2218 296.969 94.1765 294.244 94.1765 290.548C94.1765 286.814 95.5018 283.94 98.1525 281.924C100.84 279.908 104.182 278.9 108.177 278.9C110.79 278.9 113.403 279.348 116.017 280.244C118.63 281.14 120.907 282.409 122.848 284.052L118.424 290.436C115.027 287.86 111.518 286.572 107.897 286.572ZM138.567 318.94H130.167V288.812H138.567V318.94ZM130.839 285.004C129.906 284.033 129.439 282.857 129.439 281.476C129.439 280.094 129.906 278.937 130.839 278.004C131.81 277.033 132.986 276.548 134.367 276.548C135.749 276.548 136.906 277.033 137.839 278.004C138.81 278.937 139.295 280.094 139.295 281.476C139.295 282.857 138.81 284.033 137.839 285.004C136.906 285.937 135.749 286.404 134.367 286.404C132.986 286.404 131.81 285.937 130.839 285.004ZM174.183 302.7V318.94H165.727V302.476C165.727 300.086 165.354 298.332 164.607 297.212C163.898 296.092 162.722 295.532 161.079 295.532C159.474 295.532 158.036 296.148 156.767 297.38C155.535 298.574 154.919 300.348 154.919 302.7V318.94H146.519V288.812H154.919V292.228C157.234 289.614 159.884 288.308 162.871 288.308C164.775 288.308 166.492 288.868 168.023 289.988C169.591 291.108 170.767 292.47 171.551 294.076C172.708 292.246 174.258 290.828 176.199 289.82C178.178 288.812 180.156 288.308 182.135 288.308C185.682 288.308 188.538 289.372 190.703 291.5C192.868 293.59 193.951 296.633 193.951 300.628V318.94H185.495V302.476C185.495 297.846 183.796 295.532 180.399 295.532C178.719 295.532 177.263 296.148 176.031 297.38C174.799 298.574 174.183 300.348 174.183 302.7ZM219.117 288.308C222.627 288.308 225.744 289.782 228.469 292.732C231.232 295.644 232.613 299.321 232.613 303.764C232.613 308.206 231.232 311.921 228.469 314.908C225.744 317.894 222.533 319.388 218.837 319.388C215.179 319.388 212.229 317.913 209.989 314.964V329.804H201.589V288.812H209.989V292.172C212.565 289.596 215.608 288.308 219.117 288.308ZM209.877 303.932C209.877 306.358 210.549 308.356 211.893 309.924C213.275 311.454 214.936 312.22 216.877 312.22C218.819 312.22 220.517 311.454 221.973 309.924C223.429 308.356 224.157 306.358 224.157 303.932C224.157 301.505 223.448 299.47 222.029 297.828C220.611 296.185 218.912 295.364 216.933 295.364C214.955 295.364 213.275 296.185 211.893 297.828C210.549 299.433 209.877 301.468 209.877 303.932ZM247.286 318.94H238.886V277.388H247.286V318.94ZM281.334 314.572C277.936 317.782 273.942 319.388 269.35 319.388C264.795 319.388 261.024 317.988 258.038 315.188C255.051 312.35 253.558 308.561 253.558 303.82C253.558 299.078 255.07 295.308 258.094 292.508C261.155 289.708 264.758 288.308 268.902 288.308C273.046 288.308 276.555 289.558 279.43 292.06C282.342 294.561 283.798 297.996 283.798 302.364V306.844H261.846C262.107 308.486 262.966 309.83 264.422 310.876C265.878 311.921 267.52 312.444 269.35 312.444C272.299 312.444 274.726 311.454 276.63 309.476L281.334 314.572ZM275.286 300.852C275.099 299.06 274.427 297.678 273.27 296.708C272.112 295.737 270.694 295.252 269.014 295.252C267.371 295.252 265.859 295.756 264.478 296.764C263.096 297.772 262.294 299.134 262.07 300.852H275.286Z" fill="white"/>
<path d="M107.897 286.572C106.441 286.572 105.283 286.926 104.424 287.636C103.603 288.308 103.192 289.222 103.192 290.38C103.192 291.5 103.696 292.396 104.704 293.068C105.75 293.74 108.12 294.542 111.816 295.476C115.55 296.372 118.443 297.734 120.497 299.564C122.55 301.393 123.577 304.062 123.577 307.572C123.577 311.081 122.251 313.937 119.601 316.14C116.987 318.305 113.534 319.388 109.24 319.388C103.043 319.388 97.4618 317.092 92.4965 312.5L97.7045 306.116C101.923 309.812 105.825 311.66 109.409 311.66C111.014 311.66 112.265 311.324 113.161 310.652C114.094 309.942 114.56 309.009 114.56 307.852C114.56 306.657 114.075 305.724 113.105 305.052C112.134 304.342 110.211 303.633 107.337 302.924C102.782 301.841 99.4405 300.441 97.3125 298.724C95.2218 296.969 94.1765 294.244 94.1765 290.548C94.1765 286.814 95.5018 283.94 98.1525 281.924C100.84 279.908 104.182 278.9 108.177 278.9C110.79 278.9 113.403 279.348 116.017 280.244C118.63 281.14 120.907 282.409 122.848 284.052L118.424 290.436C115.027 287.86 111.518 286.572 107.897 286.572ZM138.567 318.94H130.167V288.812H138.567V318.94ZM130.839 285.004C129.906 284.033 129.439 282.857 129.439 281.476C129.439 280.094 129.906 278.937 130.839 278.004C131.81 277.033 132.986 276.548 134.367 276.548C135.749 276.548 136.906 277.033 137.839 278.004C138.81 278.937 139.295 280.094 139.295 281.476C139.295 282.857 138.81 284.033 137.839 285.004C136.906 285.937 135.749 286.404 134.367 286.404C132.986 286.404 131.81 285.937 130.839 285.004ZM174.183 302.7V318.94H165.727V302.476C165.727 300.086 165.354 298.332 164.607 297.212C163.898 296.092 162.722 295.532 161.079 295.532C159.474 295.532 158.036 296.148 156.767 297.38C155.535 298.574 154.919 300.348 154.919 302.7V318.94H146.519V288.812H154.919V292.228C157.234 289.614 159.884 288.308 162.871 288.308C164.775 288.308 166.492 288.868 168.023 289.988C169.591 291.108 170.767 292.47 171.551 294.076C172.708 292.246 174.258 290.828 176.199 289.82C178.178 288.812 180.156 288.308 182.135 288.308C185.682 288.308 188.538 289.372 190.703 291.5C192.868 293.59 193.951 296.633 193.951 300.628V318.94H185.495V302.476C185.495 297.846 183.796 295.532 180.399 295.532C178.719 295.532 177.263 296.148 176.031 297.38C174.799 298.574 174.183 300.348 174.183 302.7ZM219.117 288.308C222.627 288.308 225.744 289.782 228.469 292.732C231.232 295.644 232.613 299.321 232.613 303.764C232.613 308.206 231.232 311.921 228.469 314.908C225.744 317.894 222.533 319.388 218.837 319.388C215.179 319.388 212.229 317.913 209.989 314.964V329.804H201.589V288.812H209.989V292.172C212.565 289.596 215.608 288.308 219.117 288.308ZM209.877 303.932C209.877 306.358 210.549 308.356 211.893 309.924C213.275 311.454 214.936 312.22 216.877 312.22C218.819 312.22 220.517 311.454 221.973 309.924C223.429 308.356 224.157 306.358 224.157 303.932C224.157 301.505 223.448 299.47 222.029 297.828C220.611 296.185 218.912 295.364 216.933 295.364C214.955 295.364 213.275 296.185 211.893 297.828C210.549 299.433 209.877 301.468 209.877 303.932ZM247.286 318.94H238.886V277.388H247.286V318.94ZM281.334 314.572C277.936 317.782 273.942 319.388 269.35 319.388C264.795 319.388 261.024 317.988 258.038 315.188C255.051 312.35 253.558 308.561 253.558 303.82C253.558 299.078 255.07 295.308 258.094 292.508C261.155 289.708 264.758 288.308 268.902 288.308C273.046 288.308 276.555 289.558 279.43 292.06C282.342 294.561 283.798 297.996 283.798 302.364V306.844H261.846C262.107 308.486 262.966 309.83 264.422 310.876C265.878 311.921 267.52 312.444 269.35 312.444C272.299 312.444 274.726 311.454 276.63 309.476L281.334 314.572ZM275.286 300.852C275.099 299.06 274.427 297.678 273.27 296.708C272.112 295.737 270.694 295.252 269.014 295.252C267.371 295.252 265.859 295.756 264.478 296.764C263.096 297.772 262.294 299.134 262.07 300.852H275.286Z" fill="white"/>
<path d="M103.296 362.435L99.8945 369.311H98.2205L94.8365 362.435V370.355H92.0285V357.773H95.8265L99.0665 364.685L102.325 357.773H106.104V370.355H103.296V362.435ZM117.158 370.355H114.62V369.185C113.924 370.061 113.06 370.499 112.028 370.499C111.008 370.499 110.15 370.205 109.454 369.617C108.758 369.017 108.41 368.225 108.41 367.241C108.41 366.245 108.77 365.501 109.49 365.009C110.21 364.517 111.194 364.271 112.442 364.271H114.458V364.217C114.458 363.185 113.912 362.669 112.82 362.669C112.352 362.669 111.854 362.765 111.326 362.957C110.81 363.137 110.372 363.365 110.012 363.641L108.806 361.895C110.078 360.971 111.53 360.509 113.162 360.509C114.338 360.509 115.298 360.803 116.042 361.391C116.786 361.979 117.158 362.909 117.158 364.181V370.355ZM114.44 366.665V366.197H112.748C111.668 366.197 111.128 366.533 111.128 367.205C111.128 367.553 111.254 367.823 111.506 368.015C111.77 368.195 112.142 368.285 112.622 368.285C113.102 368.285 113.522 368.141 113.882 367.853C114.254 367.553 114.44 367.157 114.44 366.665ZM122.32 370.355H119.62V356.999H122.32V363.857L125.326 360.653H128.728L125.038 364.577L128.872 370.355H125.668L123.202 366.647L122.32 367.565V370.355ZM138.713 368.951C137.621 369.983 136.337 370.499 134.861 370.499C133.397 370.499 132.185 370.049 131.225 369.149C130.265 368.237 129.785 367.019 129.785 365.495C129.785 363.971 130.271 362.759 131.243 361.859C132.227 360.959 133.385 360.509 134.717 360.509C136.049 360.509 137.177 360.911 138.101 361.715C139.037 362.519 139.505 363.623 139.505 365.027V366.467H132.449C132.533 366.995 132.809 367.427 133.277 367.763C133.745 368.099 134.273 368.267 134.861 368.267C135.809 368.267 136.589 367.949 137.201 367.313L138.713 368.951ZM136.769 364.541C136.709 363.965 136.493 363.521 136.121 363.209C135.749 362.897 135.293 362.741 134.753 362.741C134.225 362.741 133.739 362.903 133.295 363.227C132.851 363.551 132.593 363.989 132.521 364.541H136.769ZM147.872 374.171C146.924 374.171 146.03 373.787 145.19 373.019L146.414 371.021C146.87 371.465 147.338 371.687 147.818 371.687C148.07 371.687 148.286 371.561 148.466 371.309C148.646 371.069 148.736 370.811 148.736 370.535C148.736 370.259 147.488 366.971 144.992 360.671H147.872L150.23 366.701L152.588 360.671H155.468L150.968 372.083C150.704 372.743 150.29 373.253 149.726 373.613C149.174 373.985 148.556 374.171 147.872 374.171ZM158.747 365.513C158.747 366.305 158.969 366.953 159.413 367.457C159.869 367.949 160.445 368.195 161.141 368.195C161.849 368.195 162.425 367.949 162.869 367.457C163.325 366.953 163.553 366.305 163.553 365.513C163.553 364.721 163.325 364.073 162.869 363.569C162.425 363.065 161.849 362.813 161.141 362.813C160.445 362.813 159.869 363.065 159.413 363.569C158.969 364.073 158.747 364.721 158.747 365.513ZM166.271 365.513C166.271 366.917 165.785 368.099 164.813 369.059C163.841 370.019 162.617 370.499 161.141 370.499C159.677 370.499 158.459 370.019 157.487 369.059C156.515 368.099 156.029 366.917 156.029 365.513C156.029 364.109 156.515 362.927 157.487 361.967C158.459 360.995 159.677 360.509 161.141 360.509C162.617 360.509 163.841 360.995 164.813 361.967C165.785 362.927 166.271 364.109 166.271 365.513ZM174.522 365.891V360.671H177.24V370.355H174.522V369.077C173.85 370.025 172.98 370.499 171.912 370.499C170.856 370.499 169.968 370.169 169.248 369.509C168.528 368.837 168.168 367.847 168.168 366.539V360.671H170.886V365.945C170.886 367.433 171.432 368.177 172.524 368.177C173.064 368.177 173.532 367.985 173.928 367.601C174.324 367.205 174.522 366.635 174.522 365.891ZM189.576 370.355H186.786L183.492 360.671H186.282L188.172 366.521L190.062 360.671H192.672L194.562 366.521L196.452 360.671H199.26L195.966 370.355H193.158L191.376 365.081L189.576 370.355ZM202.762 365.513C202.762 366.305 202.984 366.953 203.428 367.457C203.884 367.949 204.46 368.195 205.156 368.195C205.864 368.195 206.44 367.949 206.884 367.457C207.34 366.953 207.568 366.305 207.568 365.513C207.568 364.721 207.34 364.073 206.884 363.569C206.44 363.065 205.864 362.813 205.156 362.813C204.46 362.813 203.884 363.065 203.428 363.569C202.984 364.073 202.762 364.721 202.762 365.513ZM210.286 365.513C210.286 366.917 209.8 368.099 208.828 369.059C207.856 370.019 206.632 370.499 205.156 370.499C203.692 370.499 202.474 370.019 201.502 369.059C200.53 368.099 200.044 366.917 200.044 365.513C200.044 364.109 200.53 362.927 201.502 361.967C202.474 360.995 203.692 360.509 205.156 360.509C206.632 360.509 207.856 360.995 208.828 361.967C209.8 362.927 210.286 364.109 210.286 365.513ZM217.386 363.047C216.582 363.047 215.982 363.335 215.586 363.911C215.19 364.475 214.992 365.225 214.992 366.161V370.355H212.292V360.671H214.992V361.949C215.34 361.553 215.772 361.217 216.288 360.941C216.816 360.665 217.35 360.521 217.89 360.509L217.908 363.047H217.386ZM222.392 370.355H219.692V356.999H222.392V363.857L225.398 360.653H228.8L225.11 364.577L228.944 370.355H225.74L223.274 366.647L222.392 367.565V370.355ZM242.433 367.349C242.433 368.297 242.079 369.059 241.371 369.635C240.675 370.211 239.787 370.499 238.707 370.499C237.987 370.499 237.237 370.373 236.457 370.121C235.677 369.857 234.975 369.473 234.351 368.969L235.539 367.277C236.547 368.057 237.621 368.447 238.761 368.447C239.109 368.447 239.385 368.381 239.589 368.249C239.793 368.105 239.895 367.919 239.895 367.691C239.895 367.463 239.751 367.253 239.463 367.061C239.187 366.869 238.779 366.689 238.239 366.521C237.711 366.353 237.303 366.209 237.015 366.089C236.739 365.969 236.421 365.795 236.061 365.567C235.329 365.111 234.963 364.439 234.963 363.551C234.963 362.651 235.323 361.919 236.043 361.355C236.763 360.791 237.693 360.509 238.833 360.509C239.973 360.509 241.113 360.893 242.253 361.661L241.245 363.461C240.405 362.885 239.565 362.597 238.725 362.597C237.897 362.597 237.483 362.825 237.483 363.281C237.483 363.533 237.615 363.731 237.879 363.875C238.143 364.019 238.581 364.187 239.193 364.379C239.805 364.571 240.237 364.721 240.489 364.829C240.753 364.925 241.065 365.081 241.425 365.297C242.097 365.705 242.433 366.389 242.433 367.349ZM247.195 370.355H244.495V360.671H247.195V370.355ZM244.711 359.447C244.411 359.135 244.261 358.757 244.261 358.313C244.261 357.869 244.411 357.497 244.711 357.197C245.023 356.885 245.401 356.729 245.845 356.729C246.289 356.729 246.661 356.885 246.961 357.197C247.273 357.497 247.429 357.869 247.429 358.313C247.429 358.757 247.273 359.135 246.961 359.447C246.661 359.747 246.289 359.897 245.845 359.897C245.401 359.897 245.023 359.747 244.711 359.447ZM258.643 365.135V370.355H255.925V365.063C255.925 364.295 255.805 363.731 255.565 363.371C255.337 363.011 254.959 362.831 254.431 362.831C253.915 362.831 253.453 363.029 253.045 363.425C252.649 363.809 252.451 364.379 252.451 365.135V370.355H249.751V360.671H252.451V361.769C253.195 360.929 254.047 360.509 255.007 360.509C255.619 360.509 256.171 360.689 256.663 361.049C257.167 361.409 257.545 361.847 257.797 362.363C258.169 361.775 258.667 361.319 259.291 360.995C259.927 360.671 260.563 360.509 261.199 360.509C262.339 360.509 263.257 360.851 263.953 361.535C264.649 362.207 264.997 363.185 264.997 364.469V370.355H262.279V365.063C262.279 363.575 261.733 362.831 260.641 362.831C260.101 362.831 259.633 363.029 259.237 363.425C258.841 363.809 258.643 364.379 258.643 365.135ZM273.086 360.509C274.214 360.509 275.216 360.983 276.092 361.931C276.98 362.867 277.424 364.049 277.424 365.477C277.424 366.905 276.98 368.099 276.092 369.059C275.216 370.019 274.184 370.499 272.996 370.499C271.82 370.499 270.872 370.025 270.152 369.077V373.847H267.452V360.671H270.152V361.751C270.98 360.923 271.958 360.509 273.086 360.509ZM270.116 365.531C270.116 366.311 270.332 366.953 270.764 367.457C271.208 367.949 271.742 368.195 272.366 368.195C272.99 368.195 273.536 367.949 274.004 367.457C274.472 366.953 274.706 366.311 274.706 365.531C274.706 364.751 274.478 364.097 274.022 363.569C273.566 363.041 273.02 362.777 272.384 362.777C271.748 362.777 271.208 363.041 270.764 363.569C270.332 364.085 270.116 364.739 270.116 365.531ZM282.14 370.355H279.44V356.999H282.14V370.355ZM293.084 368.951C291.992 369.983 290.708 370.499 289.232 370.499C287.768 370.499 286.556 370.049 285.596 369.149C284.636 368.237 284.156 367.019 284.156 365.495C284.156 363.971 284.642 362.759 285.614 361.859C286.598 360.959 287.756 360.509 289.088 360.509C290.42 360.509 291.548 360.911 292.472 361.715C293.408 362.519 293.876 363.623 293.876 365.027V366.467H286.82C286.904 366.995 287.18 367.427 287.648 367.763C288.116 368.099 288.644 368.267 289.232 368.267C290.18 368.267 290.96 367.949 291.572 367.313L293.084 368.951ZM291.14 364.541C291.08 363.965 290.864 363.521 290.492 363.209C290.12 362.897 289.664 362.741 289.124 362.741C288.596 362.741 288.11 362.903 287.666 363.227C287.222 363.551 286.964 363.989 286.892 364.541H291.14Z" fill="white"/>
</svg>
